<svg width="48" height="48" viewBox="0 0 48 48" fill="none" xmlns="http://www.w3.org/2000/svg">
<path d="M23.3778 9.67556C21.0133 9.92889 19.48 11.3467 19.0933 13.6444C18.8756 14.9244 18.9911 16.0044 19.4844 17.2667C19.6622 17.7156 20.0889 18.6133 20.36 19.0978C20.4178 19.2 20.4578 19.2933 20.4444 19.3022C20.4311 19.3156 19.2844 19.6978 17.8889 20.1556C16.4978 20.6133 14.4844 21.2711 13.4222 21.6222C12.36 21.9733 11.1111 22.3822 10.6444 22.5333C9.96445 22.7556 9.77778 22.8311 9.68 22.9378L9.55556 23.0667V28.2889V33.5111L9.68 33.6444C9.78667 33.7644 9.98222 33.84 11.2444 34.2489C12.04 34.5067 13.5378 34.9956 14.5778 35.3333C15.6178 35.6711 16.8089 36.0578 17.2222 36.1911C17.64 36.3289 19.1867 36.8311 20.6667 37.3111C22.1467 37.7911 23.5022 38.2311 23.68 38.2889L24.0044 38.3911L25.1689 38.0133C25.8089 37.8089 27.1822 37.36 28.2222 37.0222C32.6533 35.5778 33.8889 35.1778 35.4667 34.6667C38.2711 33.76 38.2 33.7822 38.3156 33.6622L38.4222 33.5467L38.4356 28.3111L38.4445 23.0756L38.3333 22.9422C38.2578 22.8489 38.1378 22.7822 37.9644 22.7333C37.8267 22.6933 36.8 22.36 35.6889 21.9911C33.6089 21.3067 31.6267 20.6533 29.2222 19.8667C28.4667 19.6178 27.8267 19.3956 27.8089 19.3778C27.7867 19.36 27.9156 19.0844 28.0889 18.7644C28.5689 17.8889 28.9911 16.8311 29.16 16.0711C29.48 14.6489 29.1644 12.7511 28.4311 11.6533C27.5378 10.32 26.0533 9.63111 24.1111 9.65334C23.7956 9.65778 23.4622 9.66667 23.3778 9.67556ZM24.7778 10.5778C25.6178 10.6756 26.3778 10.9378 26.8222 11.2889C27.7689 12.0311 28.2 12.8889 28.36 14.3333C28.4844 15.48 28.2356 16.4622 27.4222 18.0889C26.8444 19.2444 25.5689 21.1422 24.4533 22.5022L24.1378 22.8933L23.6311 22.2578C21.7733 19.9111 20.5689 17.88 20.0933 16.28C19.9111 15.6578 19.8578 15.1244 19.9111 14.4178C19.9689 13.6844 20.1156 13.1244 20.4044 12.5467C20.6489 12.0578 21.0178 11.6089 21.4133 11.3156C22.2311 10.7156 23.5156 10.4356 24.7778 10.5778ZM22.4044 22.1644C22.9733 22.9022 23.6756 23.7644 23.9556 24.0711C24.1778 24.3111 24.08 24.3689 24.7422 23.5778C25.4844 22.6844 26.2711 21.6489 26.7556 20.9289C27.0044 20.5511 27.2267 20.2267 27.2444 20.2089C27.2622 20.1911 27.4533 20.2356 27.6711 20.3067C28.6311 20.6222 34.3867 22.52 35.3422 22.8311C35.9244 23.0222 36.3956 23.1956 36.3867 23.2222C36.3778 23.2667 35.8444 23.4444 31.2667 24.9244C30.4356 25.1956 28.4622 25.8356 26.88 26.3467L24.0044 27.28L23.68 27.1778C23.3111 27.0622 18.9689 25.6533 17.6356 25.2178C15.6089 24.56 14.96 24.3511 14.2222 24.1111C12.6978 23.6178 11.5333 23.2356 11.52 23.2222C11.5111 23.2133 12.1111 23.0089 12.8533 22.7644C13.5911 22.52 15.7022 21.8311 17.5333 21.2267C19.3689 20.6222 20.8844 20.1244 20.9111 20.1156C20.9333 20.1111 21.1689 20.4178 21.4267 20.8044C21.6889 21.1911 22.1289 21.8 22.4044 22.1644ZM11.1511 24.0622C11.4844 24.1733 13.1867 24.7244 14.9333 25.2889C16.68 25.8533 18.5911 26.4711 19.1778 26.6667C20.1156 26.9733 22.4178 27.7156 22.9778 27.8933C23.0889 27.9289 23.2622 27.9867 23.3689 28.0267L23.5556 28.0978V32.6978C23.5556 36.36 23.5422 37.2933 23.5022 37.28C23.4267 37.2489 23.04 37.1244 20.1778 36.2C16.1511 34.8978 11.0622 33.2444 10.7778 33.1511C10.6311 33.0978 10.4978 33.0356 10.48 33.0089C10.44 32.9422 10.4356 23.9378 10.4756 23.8933C10.5156 23.8533 10.4933 23.8489 11.1511 24.0622ZM37.5111 28.4622V33.0533L36.48 33.3911C35.9111 33.5733 34.7556 33.9467 33.9111 34.2222C33.0667 34.4933 31.96 34.8533 31.4444 35.0222C30.9333 35.1911 29.8533 35.5422 29.0444 35.8C28.24 36.0622 27.1867 36.4 26.7111 36.5556C26.2356 36.7111 25.5556 36.9333 25.2 37.0489C24.8444 37.1644 24.5289 37.2667 24.4978 37.28C24.4533 37.2933 24.4444 36.3689 24.4533 32.6889L24.4667 28.0756L25.5556 27.7244C26.1556 27.5289 27.4044 27.1244 28.3333 26.8222C29.2622 26.52 30.6711 26.0622 31.4667 25.8044C32.2622 25.5467 33.92 25.0089 35.1556 24.6044C36.3911 24.2044 37.4267 23.8711 37.4578 23.8711C37.4978 23.8667 37.5111 24.8133 37.5111 28.4622Z" fill="white"/>
<path d="M23.5467 11.9334C22.4711 12.1467 21.5911 13.0401 21.3733 14.1334C21.2844 14.5912 21.3422 15.2445 21.5067 15.6756C21.7644 16.3423 22.2756 16.8978 22.9067 17.1956C23.3556 17.4134 23.6489 17.4801 24.1333 17.4845C24.5956 17.4845 24.8889 17.4178 25.3644 17.2001C25.6578 17.0623 25.8 16.9601 26.1022 16.6578C26.6889 16.0801 26.9333 15.4889 26.9333 14.6623C26.9333 12.8845 25.3156 11.5823 23.5467 11.9334ZM24.4622 12.4889C25.6933 12.6667 26.56 13.9023 26.3067 15.1201C26.1822 15.7289 25.6978 16.3689 25.1556 16.6445C24.2578 17.0978 23.2 16.9156 22.5378 16.1912C21.8844 15.4801 21.7422 14.5423 22.1556 13.7112C22.4933 13.0356 23.0578 12.6178 23.8133 12.4889C24.1067 12.4401 24.12 12.4401 24.4622 12.4889Z" fill="white"/>
<path d="M32.9778 28.6889C32.4533 28.8711 31.3244 29.2533 30.4667 29.5422C29.6133 29.8311 28.8756 30.1022 28.8356 30.1422C28.6711 30.3066 28.7867 30.6222 29.0089 30.6222C29.0578 30.6222 30.0178 30.3155 31.1378 29.9377C34.5378 28.8 34.3111 28.8889 34.3111 28.6666C34.3111 28.5066 34.1733 28.3555 34.0356 28.36C33.9778 28.36 33.5022 28.5111 32.9778 28.6889Z" fill="white"/>
<path d="M31.5245 30.2178C30.16 30.68 28.9911 31.08 28.92 31.1156C28.7111 31.2134 28.6978 31.4667 28.8978 31.6134L29.0178 31.7023L30.1422 31.32C30.76 31.1067 31.9156 30.7156 32.7067 30.4445C33.5022 30.1778 34.1867 29.9245 34.2311 29.88C34.3867 29.7378 34.3067 29.4889 34.08 29.4089C34.0356 29.3912 32.9422 29.7378 31.5245 30.2178Z" fill="white"/>
<path d="M31.5245 31.24C30.16 31.7023 28.9911 32.1023 28.92 32.1334C28.7111 32.2356 28.6978 32.4889 28.8978 32.6356L29.0178 32.7245L30.1645 32.3334C33.6045 31.1645 34.1556 30.9734 34.2311 30.9023C34.3111 30.8312 34.3378 30.6445 34.2756 30.5467C34.2578 30.52 34.1867 30.4756 34.1245 30.4489C34.0178 30.4089 33.6622 30.52 31.5245 31.24Z" fill="white"/>
</svg>
