<svg width="327" height="97" viewBox="0 0 327 97" fill="none" xmlns="http://www.w3.org/2000/svg">
<path d="M46.8469 19.3888C42.1088 19.8965 39.0361 22.7376 38.2613 27.3421C37.8248 29.9071 38.0564 32.0713 39.045 34.6007C39.4013 35.5003 40.2563 37.2993 40.7995 38.2701C40.9153 38.4749 40.9955 38.662 40.9688 38.6798C40.942 38.7065 38.6442 39.4724 35.8477 40.3898C33.06 41.3071 29.0255 42.6253 26.8969 43.3288C24.7683 44.0324 22.2656 44.8518 21.3305 45.1546C19.9678 45.5999 19.5938 45.7513 19.3978 45.9651L19.1484 46.2234V56.6882V67.1531L19.3978 67.4203C19.6116 67.6607 20.0034 67.8121 22.5328 68.6315C24.127 69.1481 27.1284 70.1278 29.2125 70.8046C31.2966 71.4815 33.6834 72.2563 34.5117 72.5235C35.3489 72.7996 38.4483 73.806 41.4141 74.7679C44.3798 75.7298 47.0963 76.6115 47.4525 76.7273L48.1027 76.9321L50.4361 76.1751C51.7186 75.7654 54.4706 74.8659 56.5547 74.189C65.4342 71.2945 67.9102 70.4929 71.0719 69.4687C76.6917 67.6518 76.5492 67.6963 76.7808 67.4559L76.9945 67.2243L77.0213 56.7328L77.0391 46.2412L76.8164 45.974C76.665 45.787 76.4245 45.6534 76.0772 45.5554C75.8011 45.4753 73.7438 44.8073 71.5172 44.0681C67.3491 42.6965 63.3769 41.3873 58.5586 39.8109C57.0445 39.3121 55.762 38.8668 55.7264 38.8312C55.6819 38.7956 55.9402 38.2434 56.2875 37.6021C57.2494 35.8476 58.0955 33.7279 58.4339 32.2049C59.0752 29.3549 58.4428 25.552 56.9733 23.3521C55.1831 20.6802 52.2084 19.2998 48.3164 19.3443C47.6841 19.3532 47.0161 19.371 46.8469 19.3888ZM49.6523 21.1968C51.3356 21.3927 52.8586 21.9182 53.7492 22.6218C55.6463 24.1092 56.5102 25.8281 56.8308 28.7226C57.0802 31.0204 56.5814 32.9887 54.9516 36.2484C53.7938 38.564 51.2377 42.367 49.0022 45.0923L48.3698 45.876L47.3545 44.6024C43.6317 39.8999 41.2181 35.8298 40.2652 32.6235C39.9 31.3767 39.7931 30.3079 39.9 28.8918C40.0158 27.4223 40.3097 26.3001 40.8886 25.1423C41.3784 24.1626 42.1177 23.2631 42.9103 22.6752C44.5491 21.4729 47.123 20.9118 49.6523 21.1968ZM44.8964 44.4154C46.0364 45.8938 47.4436 47.6217 48.0047 48.2362C48.45 48.7171 48.2541 48.8329 49.5811 47.2476C51.0684 45.4574 52.6448 43.3823 53.6156 41.9395C54.1144 41.1824 54.5597 40.5323 54.5953 40.4967C54.6309 40.461 55.0139 40.5501 55.4503 40.6926C57.3741 41.3249 68.9077 45.1279 70.8225 45.7513C71.9892 46.1343 72.9333 46.4817 72.9155 46.5351C72.8977 46.6242 71.8289 46.9804 62.6555 49.9462C60.99 50.4895 57.0356 51.772 53.865 52.7962L48.1027 54.6665L47.4525 54.4617C46.7133 54.2301 38.0119 51.4068 35.34 50.534C31.2788 49.2159 29.9784 48.7973 28.5 48.3163C25.4452 47.3278 23.1117 46.5618 23.085 46.5351C23.0672 46.5173 24.2695 46.1076 25.7569 45.6178C27.2353 45.1279 31.4658 43.7474 35.1352 42.5362C38.8134 41.3249 41.8505 40.3274 41.9039 40.3096C41.9484 40.3007 42.4205 40.9152 42.937 41.6901C43.4625 42.4649 44.3442 43.6851 44.8964 44.4154ZM22.3458 48.2184C23.0138 48.441 26.4248 49.5454 29.925 50.6765C33.4252 51.8076 37.2548 53.0456 38.4305 53.4374C40.3097 54.052 44.9231 55.5393 46.0453 55.8956C46.268 55.9668 46.6153 56.0826 46.8291 56.1628L47.2031 56.3053V65.5232C47.2031 72.862 47.1764 74.7323 47.0963 74.7056C46.9448 74.6432 46.17 74.3938 40.4344 72.5413C32.3653 69.9318 22.1677 66.6187 21.5977 66.4317C21.3038 66.3248 21.0366 66.2001 21.0009 66.1467C20.9208 66.0131 20.9119 47.969 20.992 47.8799C21.0722 47.7998 21.0277 47.7909 22.3458 48.2184ZM75.1688 57.0356V66.2357L73.1025 66.9126C71.9625 67.2778 69.6469 68.0259 67.9547 68.5781C66.2625 69.1213 64.0448 69.8428 63.0117 70.1812C61.9875 70.5196 59.8233 71.2232 58.2023 71.7398C56.5903 72.2653 54.4795 72.9421 53.5266 73.2538C52.5736 73.5656 51.2109 74.0109 50.4984 74.2424C49.7859 74.474 49.1536 74.6788 49.0913 74.7056C49.0022 74.7323 48.9844 72.8798 49.0022 65.5054L49.0289 56.2607L51.2109 55.5571C52.4133 55.1653 54.9159 54.3548 56.7773 53.7492C58.6388 53.1435 61.462 52.2262 63.0563 51.7096C64.6505 51.1931 67.9725 50.1154 70.4484 49.3049C72.9244 48.5034 74.9995 47.8354 75.0619 47.8354C75.142 47.8265 75.1688 49.7235 75.1688 57.0356Z" fill="#80ED99"/>
<path d="M47.1853 23.9132C45.03 24.3407 43.2666 26.1309 42.8302 28.3218C42.652 29.2391 42.7678 30.5484 43.0974 31.4123C43.6139 32.7482 44.6381 33.8615 45.9028 34.4582C46.8024 34.8946 47.3902 35.0282 48.361 35.0371C49.2872 35.0371 49.875 34.9035 50.828 34.4671C51.4158 34.191 51.7008 33.9862 52.3064 33.3805C53.482 32.2227 53.9719 31.0382 53.9719 29.3816C53.9719 25.8191 50.73 23.2096 47.1853 23.9132ZM49.02 25.0265C51.487 25.3827 53.2238 27.8587 52.7161 30.299C52.4667 31.5191 51.496 32.8016 50.4094 33.3538C48.6103 34.2623 46.4906 33.8971 45.1636 32.4454C43.8544 31.0204 43.5694 29.1412 44.3977 27.4757C45.0745 26.122 46.2056 25.2848 47.7197 25.0265C48.3075 24.9285 48.3342 24.9285 49.02 25.0265Z" fill="#80ED99"/>
<path d="M66.0844 57.4898C65.0335 57.855 62.7713 58.6209 61.0524 59.1998C59.3424 59.7787 57.8639 60.322 57.7838 60.4021C57.4542 60.7317 57.6858 61.364 58.1311 61.364C58.2291 61.364 60.1528 60.7495 62.3972 59.9925C69.2105 57.7125 68.7563 57.8906 68.7563 57.4453C68.7563 57.1246 68.4802 56.8218 68.2041 56.8307C68.0883 56.8307 67.1353 57.1335 66.0844 57.4898Z" fill="#80ED99"/>
<path d="M63.172 60.5535C60.4378 61.4798 58.0955 62.2813 57.953 62.3526C57.5344 62.5485 57.5077 63.0562 57.9084 63.3501L58.1489 63.5282L60.4022 62.7623C61.6402 62.3348 63.9558 61.551 65.5411 61.0077C67.1353 60.4734 68.5069 59.9657 68.5959 59.8766C68.9077 59.5916 68.7474 59.0929 68.2931 58.9326C68.2041 58.8969 66.0131 59.5916 63.172 60.5535Z" fill="#80ED99"/>
<path d="M63.172 62.602C60.4378 63.5282 58.0955 64.3298 57.953 64.3921C57.5344 64.597 57.5077 65.1046 57.9084 65.3985L58.1489 65.5767L60.4467 64.7929C67.3402 62.4506 68.4445 62.0676 68.5959 61.9251C68.7563 61.7826 68.8097 61.4085 68.685 61.2126C68.6494 61.1592 68.5069 61.0701 68.3822 61.0167C68.1684 60.9365 67.4559 61.1592 63.172 62.602Z" fill="#80ED99"/>
<path d="M109.569 67.5505C106.643 67.5505 104.194 66.5217 102.22 64.4641C100.261 62.4065 99.2808 59.46 99.2808 55.6248C99.2808 51.7755 100.296 48.829 102.325 46.7854C104.369 44.7278 107.112 43.699 110.556 43.699C112.333 43.699 114.356 44.0559 116.624 44.7698V38.324C116.624 37.946 116.743 37.6381 116.98 37.4001C117.232 37.1482 117.54 37.0222 117.904 37.0222H122.586C122.964 37.0222 123.272 37.1482 123.51 37.4001C123.762 37.6381 123.888 37.946 123.888 38.324V65.8499C123.888 66.2138 123.762 66.5217 123.51 66.7737C123.272 67.0116 122.964 67.1306 122.586 67.1306H118.555C118.177 67.1306 117.869 67.0116 117.631 66.7737C117.393 66.5217 117.274 66.2138 117.274 65.8499V65.199C115.063 66.7667 112.494 67.5505 109.569 67.5505ZM112.067 48.78C110.136 48.78 108.771 49.3259 107.973 50.4177C107.175 51.4955 106.776 53.2312 106.776 55.6248C106.776 58.0183 107.154 59.761 107.91 60.8528C108.666 61.9446 109.8 62.4905 111.312 62.4905C112.837 62.4905 114.608 61.8606 116.624 60.6008V49.6199C114.818 49.06 113.299 48.78 112.067 48.78ZM130.985 64.4851C128.829 62.4415 127.751 59.502 127.751 55.6667C127.751 51.8175 128.836 48.864 131.006 46.8064C133.175 44.7348 136.185 43.699 140.034 43.699C143.883 43.699 146.886 44.7068 149.042 46.7224C151.197 48.724 152.275 51.6005 152.275 55.3518V56.5486C152.275 56.9265 152.149 57.2415 151.897 57.4934C151.659 57.7314 151.351 57.8503 150.973 57.8503H135.163C135.303 59.572 135.793 60.8248 136.633 61.6086C137.487 62.3925 138.844 62.7844 140.706 62.7844C142.568 62.7844 143.841 62.3645 144.527 61.5247C145.213 60.6848 146.06 60.2579 147.068 60.2439H150.196C150.574 60.2439 150.882 60.3699 151.12 60.6218C151.372 60.8598 151.498 61.1677 151.498 61.5457C151.498 65.5629 147.67 67.5645 140.013 67.5505C136.15 67.5505 133.14 66.5287 130.985 64.4851ZM135.121 53.4202H144.884C144.744 50.1168 143.121 48.4651 140.013 48.4651C136.92 48.4651 135.289 50.1168 135.121 53.4202ZM156.138 65.8499V38.324C156.138 37.946 156.257 37.6381 156.495 37.4001C156.747 37.1482 157.055 37.0222 157.419 37.0222H162.122C162.486 37.0222 162.787 37.1482 163.025 37.4001C163.277 37.6381 163.403 37.946 163.403 38.324V65.8499C163.403 66.2138 163.277 66.5217 163.025 66.7737C162.787 67.0116 162.486 67.1306 162.122 67.1306H157.419C157.055 67.1306 156.747 67.0116 156.495 66.7737C156.257 66.5217 156.138 66.2138 156.138 65.8499ZM168.568 39.7307V39.0168C168.568 38.275 168.778 37.6871 169.198 37.2532C169.632 36.8193 170.227 36.6023 170.982 36.6023H173.586C174.328 36.6023 174.916 36.8193 175.35 37.2532C175.784 37.6731 176 38.261 176 39.0168V39.7307C176 40.4726 175.784 41.0605 175.35 41.4944C174.93 41.9283 174.342 42.1453 173.586 42.1453H170.982C170.241 42.1453 169.653 41.9283 169.219 41.4944C168.785 41.0605 168.568 40.4726 168.568 39.7307ZM168.652 65.8499V45.9246C168.652 45.5466 168.771 45.2387 169.009 45.0007C169.261 44.7628 169.569 44.6438 169.933 44.6438H174.636C175.014 44.6438 175.322 44.7698 175.56 45.0217C175.798 45.2597 175.917 45.5606 175.917 45.9246V65.8499C175.917 66.2278 175.791 66.5357 175.539 66.7737C175.301 67.0116 175 67.1306 174.636 67.1306H169.933C169.555 67.1306 169.247 67.0116 169.009 66.7737C168.771 66.5357 168.652 66.2278 168.652 65.8499ZM180.095 44.1189H184.126C184.728 44.1189 185.295 44.2939 185.827 44.6438C186.359 44.9797 186.736 45.4207 186.96 45.9666L192.692 59.0471L198.403 45.9666C198.627 45.4207 199.005 44.9797 199.537 44.6438C200.069 44.2939 200.636 44.1189 201.238 44.1189H205.29C205.78 44.1189 206.102 44.3009 206.256 44.6648C206.326 44.8048 206.354 44.9867 206.34 45.2107C206.34 45.4207 206.277 45.6726 206.151 45.9666L197.081 65.283C196.829 65.8289 196.43 66.2768 195.884 66.6267C195.352 66.9626 194.799 67.1306 194.225 67.1306H191.139C190.565 67.1306 190.012 66.9626 189.48 66.6267C188.948 66.2768 188.556 65.8289 188.304 65.283L179.234 45.9666C179.094 45.6586 179.024 45.3997 179.024 45.1897C179.024 44.4758 179.381 44.1189 180.095 44.1189ZM210.896 64.4851C208.74 62.4415 207.663 59.502 207.663 55.6667C207.663 51.8175 208.747 48.864 210.917 46.8064C213.087 44.7348 216.096 43.699 219.945 43.699C223.795 43.699 226.797 44.7068 228.953 46.7224C231.108 48.724 232.186 51.6005 232.186 55.3518V56.5486C232.186 56.9265 232.06 57.2415 231.808 57.4934C231.57 57.7314 231.262 57.8503 230.884 57.8503H215.074C215.214 59.572 215.704 60.8248 216.544 61.6086C217.398 62.3925 218.756 62.7844 220.617 62.7844C222.479 62.7844 223.753 62.3645 224.438 61.5247C225.124 60.6848 225.971 60.2579 226.979 60.2439H230.107C230.485 60.2439 230.793 60.3699 231.031 60.6218C231.283 60.8598 231.409 61.1677 231.409 61.5457C231.409 65.5629 227.581 67.5645 219.924 67.5505C216.061 67.5505 213.052 66.5287 210.896 64.4851ZM215.032 53.4202H224.795C224.655 50.1168 223.032 48.4651 219.924 48.4651C216.831 48.4651 215.2 50.1168 215.032 53.4202ZM251.964 49.4519L248.731 49.3259C246.841 49.3259 245.036 50.3617 243.314 52.4333V65.8499C243.314 66.2278 243.188 66.5357 242.936 66.7737C242.698 67.0116 242.397 67.1306 242.033 67.1306H237.33C236.952 67.1306 236.644 67.0116 236.406 66.7737C236.168 66.5357 236.049 66.2278 236.049 65.8499V45.4207C236.049 45.0427 236.168 44.7348 236.406 44.4968C236.658 44.2449 236.966 44.1189 237.33 44.1189H242.033C242.411 44.1189 242.719 44.2449 242.957 44.4968C243.195 44.7348 243.314 45.0427 243.314 45.4207V46.7434C244.742 45.7076 246.113 44.9447 247.429 44.4548C248.759 43.9509 250.495 43.699 252.636 43.699C253.014 43.699 253.322 43.825 253.56 44.0769C253.812 44.3149 253.938 44.6158 253.938 44.9797V48.1711C253.938 48.5491 253.812 48.857 253.56 49.095C253.322 49.3329 253.014 49.4519 252.636 49.4519H251.964ZM258.683 53.2942C258.683 51.3905 259.628 50.4387 261.518 50.4387H264.1C265.01 50.4387 265.71 50.6837 266.2 51.1736C266.69 51.6635 266.935 52.3704 266.935 53.2942V54.6169C266.935 55.5128 266.69 56.2126 266.2 56.7166C265.71 57.2065 265.01 57.4514 264.1 57.4514H261.518C260.594 57.4514 259.887 57.2065 259.397 56.7166C258.921 56.2126 258.683 55.5128 258.683 54.6169V53.2942ZM274.262 65.199V39.0168C274.262 38.4709 274.458 38.002 274.85 37.6101C275.242 37.2182 275.711 37.0222 276.257 37.0222H280.162C280.736 37.0222 281.212 37.2182 281.59 37.6101C281.982 38.002 282.178 38.4709 282.178 39.0168V65.157C282.178 65.7029 281.975 66.1718 281.569 66.5637C281.177 66.9417 280.708 67.1306 280.162 67.1306H276.257C275.711 67.1306 275.242 66.9486 274.85 66.5847C274.458 66.2068 274.262 65.7449 274.262 65.199ZM285.621 40.9905V39.0168C285.621 38.443 285.81 37.967 286.188 37.5891C286.566 37.2112 287.042 37.0222 287.616 37.0222H314.26C314.834 37.0222 315.31 37.2112 315.688 37.5891C316.065 37.967 316.254 38.443 316.254 39.0168V40.9905C316.254 41.5644 316.065 42.0403 315.688 42.4182C315.31 42.7821 314.834 42.9641 314.26 42.9641H304.896V65.199C304.896 65.7449 304.7 66.2068 304.308 66.5847C303.93 66.9486 303.468 67.1306 302.922 67.1306H298.954C298.408 67.1306 297.939 66.9486 297.547 66.5847C297.169 66.2068 296.98 65.7449 296.98 65.199V42.9641H287.616C287.042 42.9641 286.566 42.7821 286.188 42.4182C285.81 42.0403 285.621 41.5644 285.621 40.9905Z" fill="white"/>
</svg>
